<svg xmlns="http://www.w3.org/2000/svg" viewBox="0 0 96 64" shape-rendering="crispEdges">
  <rect width="96" height="64" fill="#012169"/>
  <rect width="44" height="32" fill="#012169"/>
  <path d="M0 0h6l38 25v7h-6L0 7zM44 0v7L6 32H0v-7L38 0z" fill="#fff"/>
  <path d="M0 0h4l40 27v5h-4L0 5zM44 0v5L4 32H0v-5L40 0z" fill="#c8102e"/>
  <rect x="17" width="10" height="32" fill="#fff"/><rect y="11" width="44" height="10" fill="#fff"/>
  <rect x="19" width="6" height="32" fill="#c8102e"/><rect y="13" width="44" height="6" fill="#c8102e"/>
  <g fill="#fff">
    <rect x="69" y="12" width="5" height="5"/><rect x="58" y="30" width="5" height="5"/><rect x="78" y="36" width="5" height="5"/><rect x="68" y="50" width="5" height="5"/>
  </g>
</svg>
