<svg xmlns="http://www.w3.org/2000/svg" viewBox="0 0 96 64" shape-rendering="crispEdges">
  <rect width="96" height="64" fill="#fff"/>
  <g fill="#b22234">
    <rect y="0" width="96" height="5"/><rect y="10" width="96" height="5"/><rect y="20" width="96" height="5"/><rect y="30" width="96" height="5"/><rect y="40" width="96" height="5"/><rect y="50" width="96" height="5"/><rect y="60" width="96" height="4"/>
  </g>
  <rect width="40" height="35" fill="#3c3b6e"/>
  <g fill="#fff">
    <rect x="6" y="5" width="4" height="4"/><rect x="16" y="5" width="4" height="4"/><rect x="26" y="5" width="4" height="4"/>
    <rect x="11" y="13" width="4" height="4"/><rect x="21" y="13" width="4" height="4"/><rect x="31" y="13" width="4" height="4"/>
    <rect x="6" y="21" width="4" height="4"/><rect x="16" y="21" width="4" height="4"/><rect x="26" y="21" width="4" height="4"/>
  </g>
</svg>
